<mxfile host="65bd71144e">
    <diagram id="8rvmkuEb8ZAuPatsWcLy" name="Página-1">
        <mxGraphModel dx="839" dy="546" grid="1" gridSize="10" guides="1" tooltips="1" connect="1" arrows="1" fold="1" page="1" pageScale="1" pageWidth="827" pageHeight="1169" math="0" shadow="0">
            <root>
                <mxCell id="0"/>
                <mxCell id="1" parent="0"/>
                <mxCell id="2" value="Customer" style="swimlane;fontStyle=0;childLayout=stackLayout;horizontal=1;startSize=26;fillColor=none;horizontalStack=0;resizeParent=1;resizeParentMax=0;resizeLast=0;collapsible=1;marginBottom=0;" vertex="1" parent="1">
                    <mxGeometry x="40" y="120" width="140" height="156" as="geometry"/>
                </mxCell>
                <mxCell id="3" value="_id: ObjectId" style="text;strokeColor=none;fillColor=none;align=left;verticalAlign=top;spacingLeft=4;spacingRight=4;overflow=hidden;rotatable=0;points=[[0,0.5],[1,0.5]];portConstraint=eastwest;" vertex="1" parent="2">
                    <mxGeometry y="26" width="140" height="26" as="geometry"/>
                </mxCell>
                <mxCell id="4" value="name: String" style="text;strokeColor=none;fillColor=none;align=left;verticalAlign=top;spacingLeft=4;spacingRight=4;overflow=hidden;rotatable=0;points=[[0,0.5],[1,0.5]];portConstraint=eastwest;" vertex="1" parent="2">
                    <mxGeometry y="52" width="140" height="26" as="geometry"/>
                </mxCell>
                <mxCell id="5" value="phone: String" style="text;strokeColor=none;fillColor=none;align=left;verticalAlign=top;spacingLeft=4;spacingRight=4;overflow=hidden;rotatable=0;points=[[0,0.5],[1,0.5]];portConstraint=eastwest;" vertex="1" parent="2">
                    <mxGeometry y="78" width="140" height="26" as="geometry"/>
                </mxCell>
                <mxCell id="6" value="id_document: String" style="text;strokeColor=none;fillColor=none;align=left;verticalAlign=top;spacingLeft=4;spacingRight=4;overflow=hidden;rotatable=0;points=[[0,0.5],[1,0.5]];portConstraint=eastwest;" vertex="1" parent="2">
                    <mxGeometry y="104" width="140" height="26" as="geometry"/>
                </mxCell>
                <mxCell id="7" value="address: String" style="text;strokeColor=none;fillColor=none;align=left;verticalAlign=top;spacingLeft=4;spacingRight=4;overflow=hidden;rotatable=0;points=[[0,0.5],[1,0.5]];portConstraint=eastwest;" vertex="1" parent="2">
                    <mxGeometry y="130" width="140" height="26" as="geometry"/>
                </mxCell>
                <mxCell id="8" value="Sale" style="swimlane;fontStyle=0;childLayout=stackLayout;horizontal=1;startSize=26;fillColor=none;horizontalStack=0;resizeParent=1;resizeParentMax=0;resizeLast=0;collapsible=1;marginBottom=0;" vertex="1" parent="1">
                    <mxGeometry x="350" y="120" width="140" height="130" as="geometry"/>
                </mxCell>
                <mxCell id="9" value="_id: ObjectId" style="text;strokeColor=none;fillColor=none;align=left;verticalAlign=top;spacingLeft=4;spacingRight=4;overflow=hidden;rotatable=0;points=[[0,0.5],[1,0.5]];portConstraint=eastwest;" vertex="1" parent="8">
                    <mxGeometry y="26" width="140" height="26" as="geometry"/>
                </mxCell>
                <mxCell id="10" value="datetime:  DateTime" style="text;strokeColor=none;fillColor=none;align=left;verticalAlign=top;spacingLeft=4;spacingRight=4;overflow=hidden;rotatable=0;points=[[0,0.5],[1,0.5]];portConstraint=eastwest;" vertex="1" parent="8">
                    <mxGeometry y="52" width="140" height="26" as="geometry"/>
                </mxCell>
                <mxCell id="49" value="number: Number" style="text;strokeColor=none;fillColor=none;align=left;verticalAlign=top;spacingLeft=4;spacingRight=4;overflow=hidden;rotatable=0;points=[[0,0.5],[1,0.5]];portConstraint=eastwest;" vertex="1" parent="8">
                    <mxGeometry y="78" width="140" height="26" as="geometry"/>
                </mxCell>
                <mxCell id="11" value="customer_id: ObjectId " style="text;strokeColor=none;fillColor=none;align=left;verticalAlign=top;spacingLeft=4;spacingRight=4;overflow=hidden;rotatable=0;points=[[0,0.5],[1,0.5]];portConstraint=eastwest;" vertex="1" parent="8">
                    <mxGeometry y="104" width="140" height="26" as="geometry"/>
                </mxCell>
                <mxCell id="16" value="n" style="endArrow=open;html=1;endSize=12;startArrow=diamondThin;startSize=14;startFill=1;edgeStyle=orthogonalEdgeStyle;align=left;verticalAlign=bottom;entryX=1.021;entryY=0.077;entryDx=0;entryDy=0;entryPerimeter=0;" edge="1" parent="1" target="2">
                    <mxGeometry x="-0.8803" y="-12" relative="1" as="geometry">
                        <mxPoint x="350" y="132" as="sourcePoint"/>
                        <mxPoint x="410" y="400" as="targetPoint"/>
                        <mxPoint as="offset"/>
                    </mxGeometry>
                </mxCell>
                <mxCell id="17" value="Product" style="swimlane;fontStyle=0;childLayout=stackLayout;horizontal=1;startSize=26;fillColor=none;horizontalStack=0;resizeParent=1;resizeParentMax=0;resizeLast=0;collapsible=1;marginBottom=0;" vertex="1" parent="1">
                    <mxGeometry x="600" y="320" width="140" height="156" as="geometry"/>
                </mxCell>
                <mxCell id="18" value="_id: ObjectId" style="text;strokeColor=none;fillColor=none;align=left;verticalAlign=top;spacingLeft=4;spacingRight=4;overflow=hidden;rotatable=0;points=[[0,0.5],[1,0.5]];portConstraint=eastwest;" vertex="1" parent="17">
                    <mxGeometry y="26" width="140" height="26" as="geometry"/>
                </mxCell>
                <mxCell id="19" value="description: String" style="text;strokeColor=none;fillColor=none;align=left;verticalAlign=top;spacingLeft=4;spacingRight=4;overflow=hidden;rotatable=0;points=[[0,0.5],[1,0.5]];portConstraint=eastwest;" vertex="1" parent="17">
                    <mxGeometry y="52" width="140" height="26" as="geometry"/>
                </mxCell>
                <mxCell id="20" value="unit: String" style="text;strokeColor=none;fillColor=none;align=left;verticalAlign=top;spacingLeft=4;spacingRight=4;overflow=hidden;rotatable=0;points=[[0,0.5],[1,0.5]];portConstraint=eastwest;" vertex="1" parent="17">
                    <mxGeometry y="78" width="140" height="26" as="geometry"/>
                </mxCell>
                <mxCell id="23" value="price: Number" style="text;strokeColor=none;fillColor=none;align=left;verticalAlign=top;spacingLeft=4;spacingRight=4;overflow=hidden;rotatable=0;points=[[0,0.5],[1,0.5]];portConstraint=eastwest;" vertex="1" parent="17">
                    <mxGeometry y="104" width="140" height="26" as="geometry"/>
                </mxCell>
                <mxCell id="53" value="price: Number" style="text;strokeColor=none;fillColor=none;align=left;verticalAlign=top;spacingLeft=4;spacingRight=4;overflow=hidden;rotatable=0;points=[[0,0.5],[1,0.5]];portConstraint=eastwest;" vertex="1" parent="17">
                    <mxGeometry y="130" width="140" height="26" as="geometry"/>
                </mxCell>
                <mxCell id="24" value="SaleItem" style="swimlane;fontStyle=0;childLayout=stackLayout;horizontal=1;startSize=26;fillColor=none;horizontalStack=0;resizeParent=1;resizeParentMax=0;resizeLast=0;collapsible=1;marginBottom=0;" vertex="1" parent="1">
                    <mxGeometry x="350" y="320" width="140" height="104" as="geometry"/>
                </mxCell>
                <mxCell id="27" value="order: Number" style="text;strokeColor=none;fillColor=none;align=left;verticalAlign=top;spacingLeft=4;spacingRight=4;overflow=hidden;rotatable=0;points=[[0,0.5],[1,0.5]];portConstraint=eastwest;" vertex="1" parent="24">
                    <mxGeometry y="26" width="140" height="26" as="geometry"/>
                </mxCell>
                <mxCell id="50" value="quantity: Number" style="text;strokeColor=none;fillColor=none;align=left;verticalAlign=top;spacingLeft=4;spacingRight=4;overflow=hidden;rotatable=0;points=[[0,0.5],[1,0.5]];portConstraint=eastwest;" vertex="1" parent="24">
                    <mxGeometry y="52" width="140" height="26" as="geometry"/>
                </mxCell>
                <mxCell id="26" value="product_id: ObjectId" style="text;strokeColor=none;fillColor=none;align=left;verticalAlign=top;spacingLeft=4;spacingRight=4;overflow=hidden;rotatable=0;points=[[0,0.5],[1,0.5]];portConstraint=eastwest;" vertex="1" parent="24">
                    <mxGeometry y="78" width="140" height="26" as="geometry"/>
                </mxCell>
                <mxCell id="28" value="n" style="endArrow=open;html=1;endSize=12;startArrow=diamondThin;startSize=14;startFill=1;align=left;verticalAlign=bottom;entryX=0.507;entryY=1.066;entryDx=0;entryDy=0;entryPerimeter=0;exitX=0.5;exitY=0;exitDx=0;exitDy=0;" edge="1" parent="1" source="24" target="11">
                    <mxGeometry x="-0.8803" y="-12" relative="1" as="geometry">
                        <mxPoint x="414" y="320" as="sourcePoint"/>
                        <mxPoint x="360.98724137931026" y="290" as="targetPoint"/>
                        <mxPoint as="offset"/>
                    </mxGeometry>
                </mxCell>
                <mxCell id="31" value="n" style="endArrow=open;html=1;endSize=12;startArrow=diamondThin;startSize=14;startFill=1;align=left;verticalAlign=bottom;entryX=0.007;entryY=0.102;entryDx=0;entryDy=0;entryPerimeter=0;exitX=1;exitY=0.128;exitDx=0;exitDy=0;exitPerimeter=0;" edge="1" parent="1" source="24" target="17">
                    <mxGeometry x="-1" y="3" relative="1" as="geometry">
                        <mxPoint x="490" y="330" as="sourcePoint"/>
                        <mxPoint x="650" y="330" as="targetPoint"/>
                        <mxPoint as="offset"/>
                    </mxGeometry>
                </mxCell>
                <mxCell id="34" value="Supplier" style="swimlane;fontStyle=0;childLayout=stackLayout;horizontal=1;startSize=26;fillColor=none;horizontalStack=0;resizeParent=1;resizeParentMax=0;resizeLast=0;collapsible=1;marginBottom=0;" vertex="1" parent="1">
                    <mxGeometry x="600" y="120" width="140" height="156" as="geometry"/>
                </mxCell>
                <mxCell id="35" value="_id: ObjectId" style="text;strokeColor=none;fillColor=none;align=left;verticalAlign=top;spacingLeft=4;spacingRight=4;overflow=hidden;rotatable=0;points=[[0,0.5],[1,0.5]];portConstraint=eastwest;" vertex="1" parent="34">
                    <mxGeometry y="26" width="140" height="26" as="geometry"/>
                </mxCell>
                <mxCell id="36" value="name: String" style="text;strokeColor=none;fillColor=none;align=left;verticalAlign=top;spacingLeft=4;spacingRight=4;overflow=hidden;rotatable=0;points=[[0,0.5],[1,0.5]];portConstraint=eastwest;" vertex="1" parent="34">
                    <mxGeometry y="52" width="140" height="26" as="geometry"/>
                </mxCell>
                <mxCell id="37" value="address: String" style="text;strokeColor=none;fillColor=none;align=left;verticalAlign=top;spacingLeft=4;spacingRight=4;overflow=hidden;rotatable=0;points=[[0,0.5],[1,0.5]];portConstraint=eastwest;" vertex="1" parent="34">
                    <mxGeometry y="78" width="140" height="26" as="geometry"/>
                </mxCell>
                <mxCell id="38" value="phone: String" style="text;strokeColor=none;fillColor=none;align=left;verticalAlign=top;spacingLeft=4;spacingRight=4;overflow=hidden;rotatable=0;points=[[0,0.5],[1,0.5]];portConstraint=eastwest;" vertex="1" parent="34">
                    <mxGeometry y="104" width="140" height="26" as="geometry"/>
                </mxCell>
                <mxCell id="39" value="country: String" style="text;strokeColor=none;fillColor=none;align=left;verticalAlign=top;spacingLeft=4;spacingRight=4;overflow=hidden;rotatable=0;points=[[0,0.5],[1,0.5]];portConstraint=eastwest;" vertex="1" parent="34">
                    <mxGeometry y="130" width="140" height="26" as="geometry"/>
                </mxCell>
                <mxCell id="40" value="n" style="endArrow=open;html=1;endSize=12;startArrow=diamondThin;startSize=14;startFill=1;align=left;verticalAlign=bottom;exitX=0.5;exitY=0;exitDx=0;exitDy=0;entryX=0.5;entryY=1;entryDx=0;entryDy=0;" edge="1" parent="1" source="17" target="34">
                    <mxGeometry x="-1" y="-10" relative="1" as="geometry">
                        <mxPoint x="750.98" y="301.74876190476186" as="sourcePoint"/>
                        <mxPoint x="670" y="280" as="targetPoint"/>
                        <mxPoint as="offset"/>
                    </mxGeometry>
                </mxCell>
                <mxCell id="43" value="" style="shape=stencil(lZ3JkiQ3kkS/pq4hWBzbuWf6PyjCYpPSHBalyJ7l7wcYTmREqiIfMm7FommFuwMw2Kr2Jf/tj59/+P3rlxT++PP7t39+/a9ffvzz5y/5376k9MtvP3/9/suf809f8r9/yX/76dv3r//4/u1fv/3413///sOSXH/6j2//uf6F//4LV8Kt54VK4X/++pvRby3939/8/S/Ar7/89gyIt1oVMDoA0u0q7wHjFisA8i0EBSQG1KSATI903VJTwDUQ0LsCCv1CuV0GqPRZ6y1cBrgQUOyla0bAsF8o9NLtdkUDFAQMe6QSANBvl68DvfTYfKXcEFBs8yVYuBpuoRoA3mEC9DzM7Q3vUOMt22cNsA4TMOwdAv1Cuu/N5yNKv5Bv6TIArPQE/P+/9wygrzQPUFNAh4WrZaOXOj1SvfVkADhxtd2afaVO79A3gEbvMG49GgDeoYXNOzRY6RZvzdYBAenWwkuAvNlLCLjumvQZEAFQTAn0W4XP2qrppY66tbVbtpcu9Av9Fu2RCv3C2xX4BLjoF8b9Iz4D4Bd6sFu0o+br0RTZBMD9MAHVHimB1ujpluyR6J6egG5bI9FLZ7vj5sqA9u7XLdojRXrp637knwCBPuvcraKX5q1HgHmxG6DTV5oXe1QAHaAJGAage7o3W7h5Qmil579XFUCX4gQM+awVb6A+N0JUAKnKCShZAYW+0tv18QRItHBv9/4TINBudVuj3G+MjwBqVZZbAd06gj1SwSM6AaqMC27vCWjyWS+8didgVAWQ3Tri/cg/AS44ohOg5+G6b5aPAHopZtx8I93trycAbb4JyE0B5D9MQI0KIM03Abo10t183wPyXTE+AcgdWE/cFECW8fomsjUi2nzrq3cFkDsw1zUOBUQGXHJlTWucFu4y8yfghTIB4jTNQ1tppcstJgXgbi33r/4GYKtyAsQSmIBMe6moezzVc+d3kEtxAi76rOU2sgICbT67FOclRibcBEQDRPpKVdXMvLkprjEB2QCJ3yHLwr3tro8AooyXucKPJFpjGUT8C2JVLpOL30Hu6QmItNLtfn28ASIausNsjWnJom5tamBNAF27y9h5vw7TuM70ldrdvXgDsP+w7K/3jzQ9ikGftekNNAG4l5p6iq3yhdLUU5xuFG4+B1yndxAHvL2p588C8mlrKCDdP/TnAahmmt6i02FGVdk01DJd8kr3Q9eA1ARQMGf5I+/XoQ62+cwyrhzMWW5eUACuQ78b/2+AdjfqPgJIcHMCKGz38J7fAPX0C+VSABqJDih3r+hDQFEA+dMbwIXhoi0ArywH5LuT81lAwqDaFoBn2gHx1UcK6O1utkZgy7jrLVo47r0AlwICb43r/QEqHDlZB+i9D1QaXyhdQ8Cl3jXVh0qgKQAt467mTyls3Xd1LcuFAamlyGQdDj6QA6aHwu+ggMiW8Q5wWGkFBPanDXBxDmUD6Kfz4IDDSiug3TIr4/h+t14cOXmE0N4A5Z7z+PBSFMB1N4g+vHbfn4crv2hgTQCa0u2uI94AidX9vNHkK0V2/Jr6cRNAWZoJ0M8a7r/5obH+/qXzYAfcrPsJQPNnaqH3qjJ3fumqKZHcMHG0AFUBBx+ovb9QcuUrywGFXRoHXLfAAHGPczquw3tlnCNmOJaXJZ81sPljGY40Tg6H3NOpn3ar+A+pchBhao33ZzqV++768NqVX7hOqlL8uHTQGl3zDxNAqdqVZ32/DinxOgy9dlNkI3HcLYsnAC7csK8UMDvwqGx4Ahx+QbZGHHztjvs1/gRA3To0rhG5hORRO/EEQNNhBzi8tAIaR06GXijxrVzis4B6fGkDoO09NBAyAYEO0NDIeiz3RM8nN98EYGxm6KUYL44kDnWPYz75ccMAVPsz3m60N0A62d4SkJqA6yXbO0a+FPv9Iz4BLnokCxdNwCEQIrndGHilzfyZgEjr0Kyq5XTFaawfM4rrSpTg6SlWJEVk/R6I/KSt1FhxV4vY8bar9+jzQx5dk6orVvl7Vs2HVvZZqzq59f7BPoyniwfKgbGq13+5O8kfphBUHu2Rot/z4v1gVSYXh6yKXv0XmwqXpsgz502z7p/MYUBLCB4SiFFN+cS2UVArOKGP198q+x7yWL/S9fwmriCod7/6IU/7oV8auY34vj3rfo54C/So5yui+bsKfII+D3yf1vT7R4yQNquPS6hP2qU+eULboCUNCifU/y1osjdxFeRQDz5hcHQV31WVpzpOyxVwpLOaj3aQL1r3cJC3AsiDfFb9f5BPWvl0kLd6MpYvXQ3kg7zlLhMXfV8aB04YFyhJ7y/ezyWooxWxbOvqWmQYUZ9f9e6FPeTpPrqKltzG+wfby2e9H9lEvKzQM2KJ1xU1gfJWpryXD/cg40OeyhzyUHsvYlQmd7XfIubVspX/skWcrSgioDeWL90PAe+XbCXVAe+XbOc3oP+Zo9b7hLtBsZcP+v0D2rfTHPd/n+S7FgYc5M3ePsi/mZuflL9UPwSsxZvmlD0/nd91vPV5yD6f/7uYPDx/NPsqoPMfrZUioKMdzcEL6L/EupGn5y8aRQr3A7GXv9T+4TTgCguYPOz/KR90/5P9OX18ic4f5ONGnp4nqH8U2D91cfr8Zm0H1P7mXAdM5VXNIAXubdLgNB9F86QCRk+yBYD4YtFcbUS/NPm1S3GTpFYMZyyTfkg24qP6jAnTOVFVQsISIbtRMn7IoAcwY6oo3D/Ew58m+yKo+ciBxqDasmDCMWgcs2IWN6gv1DC+HbQ6uKMpuxGnPEnQDTzwYjDxpXnw4dXuZcPCKswjFwSGe+fNUzSVt5nc+ytci59HQ6MZe33C3Q14ilDjxXZ3a59D4CgvcdEp30CDRK1WiZydj5Z8aXiRRD2HkYu9on2fjoGhpFpkJYNQXqpo54oEMtR0/6wVh/dNaqcdHK2kSfb1hPD8WVvFElciZC0zXoFCcgy01m4qTjI0s7ajTlVIgc5sccKKhteluYrEnT2X1hWlhvW/l+0Hbr0za2ElEvB5pER6ekZ0515WEhGwjvxSg2F6ahQYvfR85UPgQ7//lKerrmiBauaq3HKvfXiT56rFnTwl7Fy+YD+py1ds8XD5ho6Wy3fuijf5gfrE5K+A+tPlI+b3XT69KJ9ffJ6LSQBMnvWPy1csVHT5hvfFTp7sGZdn/ePygwOjG3lKJJh8Ca/ttxIxEejyh0DqRv6gf0Q+v7Z/FlnHi/IU2HV5LmZ0eU6s7uSpcc/l22v7rXQMjO7kX9IPZWDowORrON1fXiD+yvrW+Jo+r9N+e+nfz5jo2sm/tL71QvvH5cvhvEhgqNbD+4p9XhsnZu4t/U/yFI4p919/k+/o7xT1d+qBlUbzsC0wA4zG+Vs87E/J4zRO9Bb1pxr33VretuXD+dIWppM9JuGwQ59XUfvz0EhW79bym3zF+70qDUVrnOi9V7s/yVMVaNWCsdbRX7ZG0jawvn4nT/Zn1TxL50Bw1fO1+iPxfeV89Yjl/tXaKSMmuoxWqicM7u56VCnQXzUv2TPGc6rWCXSmC6h6vlZlCL6v0EL0ctg/Ks+FU/W+e5/k+by4PBIlmXzDwOpOHkmMTL4zgdZGHmmYTH4c9rPLs34Q+REwnrOTp0Ssy8fXvs+Up0K6apw53PNqTSKD41dNUxCLNwKex0nhEsZ/mtbtLOYLKrQyHouM9p41AYxDwbARzVxcSKf3+6r048SexucvPGDREimLdAK+aIwbnpnXcpkTQDZHdJYwNkJXzbUBKBsUs5ERFlQT8dJq+FGwoC4WDbQuAD2SWSqLpYJT4soHV9GUjtZ0s6pqOamvPDOVkxNWtTHYG1jBdqNRonBlCqa/KvqrKapBvUqbqbIibZidKEK4QuQGoCvhkXp8AtDWSMVoxRpWNy6rdyiAogYrA28MW1QPnIx4YDS0G6ci05XuaLisuLjTu1EmwUpADyR4ORrJEbcbrlC3s0gSwNkLB57p7Ftj8Etf9tLc/LQKz4zdlto+czUywoEnLlurwQLQIzWj/2Sy2uzUmdztkfvuF2gdut1AB4CztR0BSmfFgOutbe7zADV9DoBot+gRoASjB0DabO8DoL+0cJflN88AZWvjvXRdu73EgM1eIoCr+yPAzzQCqnaXnAHFXxq0xsqK+DrQL7TdL3CFdDC9dAC4MkaAFb2dAfWlhSvBvJ8jwNmeERBf/YW4ITPHBEXarQNFpNOGExtTSlljfifmcOcWHFg2V6yIb3BVU7Hy3kcz60cAtVsHFtCXulHGmDi3jrrzLyg554EuvW4WjozEYk1Up4WzaN4nWOhde/MvuJrB/L8VHi/AYeFs81GpeLHWxjNAvazBOVALai8AnYfdNADM2llY/qQ1toDDL/j4AP4Ff2k8orvPejhAmzEOfER9a5zOtGuNw/Y2IxEVWd1cimSs748oGOsL8JJVuR7JTxy/gysyCnltVeXhALndejiiLwKuzQ1EAalybcaaUCKjOB3uwMh+cfbzQ6mI9bBMANZipc3WwGR20mzbApASiBuLDKfF7Owlis1sLbID4LVf2FqVB4DbrQjYWcYHgKx0DAGjOW7efwKhrBQnhN3tn0CIH3REmKv1CYR4c0eEOYyfQLhPigu483oPAPerEbDz3A8AV5kI2EUf6Gxv4xsI2EVQDgCP0WBb59jEyg4A5S05ALo2MCzAIVbmX4k6mpoy2iwAXF3Zc358E2UjIxmDu0138Q2y8nPZmBBkv+adP0fm6CpjduuSO3iVXJ7HkOW08dxp2EKOmyEwuA67YW1UjJKGjQbhMTPJKNIOE1eSUTcuMkdOjQhX/INeew8wpoXBFZJeQndKvlyWE25Yw7uaOOwXiDIw+Qy8ilVZyaNAFcsQVn/dUAD1KcShhV+DKfjj0M6nUTkp3O3KqhjfWD3J9g5UKxONdGGlOykDW8wG52rzCdBROUw/GS+Lb1SsN4zZJhDxmJmYbR0KugXRmlIHt1zEaEe0oE8ao9U8MJl2DKb5CqfOg5UwHOjrN0NjkM/IXvni8VoWSWDS0GbXVUat52U2GekFPdyfMdFpPKwj4Z7wIELCEhIfYsX8TVUbeI9lUS5PB9nlT2VdLs9lYyJ/LEtzeS57U/lTWZ3Lv/R9jmWBLs9lhyp/Kmt0eS6b1Nkqp7JMlT+VfUpGo3ORlpfdMvFlVTqdVRaL+0fHqmRskzHKhlXWy2XbNucFoypadtiZV6HY4BkmhbCy+c78IF6Wz2XbO3kqCy+qPw9l50UvvENZe9EQxCqbx+8jMapVlo/vK1HkVg5tQRITbteh7UX0f7sOzy/n69gWIfdj4/1sbSmNh5dZ20uLWPFVtEinMeOK0UvWgWWul56vylPCLj1fh5kul9JnVW7TsDbqypb3pTGKQ1uTy3PblMtzW9ZOntq+XJ7bylye29ZcntvidvLkZpj8oa3P5bltcCdPbYkuz069y3Nb5U6eYgAuz22hLs9tpzt5uq9dnttmXZ7bcnfy1Pbr8txW7PLctmzyh7bonTz55S5/opVQeW4b38mT/+XyHIhweW6rd3lu23d5pgVweaYdcHmmNXB5pk0w+QMtg8sz7YPLM62EyzNthctzjMblmXZjJ8/3u2Qtcma+Uc3CHmhJLrU/c8JB3ZeWPi1aFZQX2pzMfI5GO7PK3/H7K63NYL5Uo83pWLrltDwN/SOn/WkYRXRaocp17jZgpnBtv8brHjtwH782OuWM9nkyKjwe5ZKMTpmHOCQbsxLRv0iaQjjwvSbbDzxfIar/G9l+i5sRK9iQZbRvDdOa0eiLG05Tj5bo52Em1hQXeZZ60I6ERcuG/75+nwvtGaPLXrRyTBn4fn0XbR3cX0H3T2Q+dIuHH0aGWDPPovUD/RCMfvlEGyjyJ1ZCm87BpH5SrHhiVJTDdeJrVMqNeznO5z59QU886EnhwKFxTV5oFxqdYkY1FWx0Gbc4agknT2yMr3HKu07jtj2t7WCPOmljcESC46wB0ojxqqzxD6YP37CHY4Gkk3WTsrFgLU+La9oJeOQS1lfFAXz+MHixBecepkRajFqCyPx9OyJn5OvcEEUf5MVyOTzPpZFmHm++iLTteTgnXnSrUSB7NSWbPKkEG9jLxNXRxskFLsYITsyPhppVoQU0TNdBf4VYfXd06XbYEdWjmtoQ4aP8hmgf5TdE/iSfg3o2B/nouooc72wEsQHbwbMN6uGJ7PnSsi12/LJlTjgRlY0AJqDpkm0YbuCW5aHXHNOfX2YwRNQna9CHWMoc+E4+mAgDbdkIg5mPtdz/90OeCh0uq1zgieRrkIs+PyYCnTCbr2rzFNmKWYNubBANrFepNpmSK+5tUA8nbn0Q0EHeBpUc5G2Q0UHeBiUd5K088CBvg54O8jZI6iDfN4O8qPBimOeKiYTmhOWYCGlJK5UiBgqbRap4P7fig3coUL4Gnel+oFa4NowAHusad4PaKPCx6iZU/9D90i0Ty4OeetXIXMT7ots8d54J0W1ybeJJt0ELdhPaSyOp782FYo+6sycXkwcnKqEyD4q0wu/MgyiLVuJcPOjSCBc5MLTKO4XQF++XUXUQ2YX63Ad7FrxPVxWvZN7Qvho2OKucnkcqJSs/j3mbnAjxQa/MzTOaVV5gYn7Ka2UH2nujGeHiabL6pfI4n9tJoTDQtkb5SuUpr68Nbl8eNy1wMwUXMFW6OgRsxAhOtrbi2Rh5GGu3oSFcvTMBeqlyucbq1LgUcJj/neQXMhZwPnqZnwBUAfnovH8KUVPvxnBLgkeTPLp+ngCUJH50h74BKgdrgseROe6/R2AmYoPgUex7BK32DnEcKK+nqKNf/GgjewKg4htm+A4eQW3NQJG7rtf+kHguD3HzHZgCGwtDL6vlLfIOFO91mVN8KC5P/JH6G1pZ+xjx8qHqyArAG7RrBPBRrfcRQAd5FVYd3YbSVHQyh3VxrTATXxKabx68cE3XIQfW+U0VbGbDfFhXY07MBNq0TTtzD8cGUHB21QbA3UML8P6yzg2jMw8ewicAuYPrs0oGqJ8+q9hLmSsdlsF0KQB3q7V9XZy/WJtPUmoRfSS3gSaAqoncBroO9kM3LyBj2H1xKTYF4G7tlhhkXtmlNaxkDF/aIvsXjx5bAJutgjaQA/rpKzmAohEbADMeOaAE9mcccNh8O8Bh4RTAadcNICNLzQK8P9PlYFoaQUUpmJZefcnitdbTSotbU7hBaN2i73draWxg2QT50nF85mrGlhmUg+3prvZSYWqeBZAuAB4WMAFyT9dwOg8K4HD5BsBJ/C3gsHAKyK8+EtcubgFE/rMBcP/qAgQFHLS3ArifbbM16smqlIrB2tjQtUB15ZKv0dXmq/2oZt6f6TpOqlJ85MqkDgsgbVJcbbBu0agACg8PY65tXPg+LH7bmLB/C6CI8gbAI/02gOt0piVHexgiswFwO5l7KI25AdzAao19URuB3Q6WsSVqWz9F1iQa0gZvDaNN7lzLMZp2XR+6JJcpbdNe8LOadd+57nA5HEEBeANVzVf1zOFEn7ByYWnvgx7+CUApohUil3Uo7LwaSV/n6vyxa0fGE1fVuu8VC/lG1bRVb0g2M7wDuLH2Nq6MCUAlUNRe6p1TOUX9uN4xdziMJagfog5F1f0EUBvhBCiF3iHkdRkJFs+HXeNDhIIkIvXFsNaECSA2jglQ+mpOQQ9n300cSczGiJfYpclGEMKFpyMbhV5mBzyp1ng85EcAMU4en+EjgKjKwS3Nj6/+BKBSthE1GjoudmlsWPhjO34EUPaygtVCK1ucFIAnLmzmtKAZGjajY8h06E5cxBnLPowxtaKX1S23MyoGpKbaUoqqykUE5h4f+KAWe4csHPdnL12dFECbbwKU9bVh5KRb4nUwZUj3uRR8oXS7spaNRp+1GPlSx8lI01DwCSRYC+1UYZ15gnwCScfk1DSnlImo4wGaAN2tHW2+Ho2RkHthu7UBDG5em1aqEnl1vLKaJY5Gx8jJBCjfUUda/easih3v6da0TmMw48JjDuYTgFJT00VSjiGm/2uXkSp1ruXabb5DsZiOyjgAorGXHQA7CkMC1KGx+9FR3de+eySqwGsG4DBFtRmTj/KBPaBsyCrJWK9G3zEOU0qtimoMdJqqT2wbqCpr2rAgI+OQtTgOThzVqD7QAtBK7+hhKYxdrbb9xDA/NqNjkPR+7EbHULmxxcjGQL20eDWMdRe5051VcWCxwwT4LyBR+Y70HonKd8MHEGB0P4Pp1Yp12RwYa8tlrIqHdbAO6tMABfdQDrME0uaIkltW3B3gM12Csfp1Hu4drFit83TpYNyTfGWVnelAjdQLYHccDpTfAmild4+EJ2730jjuI5jt3XnigrUvH6yZBbDJeTTmuwQz1s8A+6zIKLazBA7vcALMP/z+w58///UfP/3y669//Pn92z+/Pv//n759//qP79/+9duPb3/1x88//P51/tf/Ag==);lineShape=1;" vertex="1" parent="1">
                    <mxGeometry x="322.72426424485707" y="101.9360726897994" width="191.04806606693697" height="345.74698315669013" as="geometry"/>
                </mxCell>
            </root>
        </mxGraphModel>
    </diagram>
</mxfile>